<?xml version="1.0" encoding="UTF-8" standalone="no"?>
<!-- Created with Inkscape (http://www.inkscape.org/) -->

<svg
   version="1.1"
   id="svg1215"
   width="162.54369"
   height="84.274963"
   xmlns:inkscape="http://www.inkscape.org/namespaces/inkscape"
   xmlns:sodipodi="http://sodipodi.sourceforge.net/DTD/sodipodi-0.dtd"
   xmlns="http://www.w3.org/2000/svg"
   xmlns:svg="http://www.w3.org/2000/svg">
  <defs
     id="defs1219" />
  <sodipodi:namedview
     id="namedview1217"
     pagecolor="#ffffff"
     bordercolor="#666666"
     borderopacity="1.0"
     inkscape:pageshadow="2"
     inkscape:pageopacity="0.0"
     inkscape:pagecheckerboard="0" />
  <inkscape:clipboard
     style="font-variation-settings:normal;opacity:1;vector-effect:none;fill:#000000;fill-opacity:1;stroke-width:0.27988399;stroke-linecap:butt;stroke-linejoin:miter;stroke-miterlimit:4;stroke-dasharray:none;stroke-dashoffset:0;stroke-opacity:1;-inkscape-stroke:none;stop-color:#000000;stop-opacity:1"
     min="14.728366,170.21143"
     max="177.27205,254.48639"
     geom-min="14.728366,170.21143"
     geom-max="177.27205,254.48639" />
  <g
     id="g1221"
     transform="matrix(0.27988399,0,0,0.27988399,-14.728366,-170.21142)">
    <g
       id="g1213">
      <g
         id="g302"
         transform="translate(75.139425,861.74239)">
        <g
           id="g304"
           transform="translate(0,2.571429)">
          <g
             id="g306"
             transform="translate(0,-1.314286)">
            <path
               d="M 4.4,41.028571 H 9.6 V 11.485714 l 13.2,29.542857 h 3.657143 L 39.6,11.542857 v 29.485714 h 5.2 V 1.485714 H 39.257143 L 24.628571,34.171429 10,1.485714 H 4.4 Z m 75.942857,0 h 5.485714 l -14.342857,-39.6 h -6 l -14.4,39.6 h 5.485715 l 3.2,-8.857142 H 77.142857 Z M 75.657143,27.942857 h -14.4 l 7.2,-20.114286 z M 101.82857,26 v 15.028571 h 5.2 V 26 L 120,1.2 h -5.77143 L 104.4,21.371429 94.571429,1.2 H 88.8 Z m 50.4,15.028571 h 5.48572 l -14.34286,-39.6 h -6 l -14.4,39.6 h 5.48571 l 3.2,-8.857142 h 17.37143 z m -4.68571,-13.085714 h -14.4 l 7.2,-20.114286 z"
               style="fill:#F2EEE4;fill-opacity:1;fill-rule:nonzero;stroke:none"
               id="path308" />
          </g>
        </g>
        <g
           id="g310"
           transform="translate(174.85745,2.571429)">
          <g
             id="g312"
             transform="translate(0,-1.314286)">
            <path
               d="m 2.457143,25.257143 c 0,9.714286 6.457143,16.285714 14.857143,16.285714 5.714285,0 9.771428,-2.914286 11.657143,-6.4 v 5.885714 h 5.257142 V -1.257143 H 28.971429 V 15.314286 C 26.8,11.714286 22.285714,9.2 17.371429,9.2 8.914286,9.2 2.457143,15.485714 2.457143,25.257143 Z m 26.514286,0.05714 c 0,7.371428 -4.914286,11.657143 -10.628572,11.657143 -5.714286,0 -10.571428,-4.342858 -10.571428,-11.714286 0,-7.371429 4.857142,-11.542857 10.571428,-11.542857 5.714286,0 10.628572,4.342857 10.628572,11.6 z M 56.342857,13.6 c 5.371429,0 9.942857,3.371429 9.885714,9.485714 H 46.457143 C 47.028571,16.971429 51.257143,13.6 56.342857,13.6 Z m 14.628572,17.771429 h -5.6 c -1.142858,3.371428 -4.114286,5.771428 -8.8,5.771428 C 51.257143,37.142857 46.8,33.657143 46.4,27.314286 H 71.428571 C 71.542857,26.228571 71.6,25.314286 71.6,24.171429 71.6,15.6 65.657143,9.2 56.571429,9.2 c -9.142858,0 -15.485715,6.228571 -15.485715,16.114286 0,9.942857 6.571429,16.228571 15.485715,16.228571 7.771428,0 12.8,-4.457143 14.4,-10.171428 z"
               style="fill:#F2EEE4;fill-opacity:1;fill-rule:nonzero;stroke:none"
               id="path314" />
          </g>
        </g>
      </g>
      <g
         id="g316"
         transform="translate(356.10497,847.59953)">
        <g
           id="g318"
           transform="translate(125.7145,15.714286)">
          <g
             id="g320"
             transform="translate(0,0.685714)">
            <path
               d="m 5.828571,16.285714 v 5.6 C 7.6,21.714286 10.628571,21.6 13.771429,21.6 h 31.371428 c 2.571429,0 4.971429,0.228571 6.114286,0.285714 v -5.6 C 50,16.4 47.942857,16.571429 45.085714,16.571429 H 13.771429 c -3.2,0 -6.228572,-0.171429 -7.942858,-0.285715 z"
               style="fill:#F2EEE4;fill-opacity:1;fill-rule:nonzero;stroke:none"
               id="path322" />
          </g>
        </g>
        <g
           id="g324"
           transform="translate(0,15.714286)">
          <g
             id="g326"
             transform="translate(0,0.685714)">
            <path
               d="m 18.4,-0.285714 c 3.542857,-0.742857 6.914286,-1.657143 9.542857,-2.628572 l -2.857143,-3.314285 c -5.028571,2 -13.942857,3.714285 -21.485714,4.742857 0.514286,0.971428 0.971429,2.342857 1.2,3.371428 3.028571,-0.4 6.228571,-0.857143 9.428571,-1.371428 V 10 H 3.085714 v 3.942857 H 13.142857 C 10.571429,21.085714 6,28.914286 1.657143,33.257143 c 0.8,1.028571 1.885714,2.742857 2.4,3.885714 3.657143,-3.942857 7.371428,-10.4 10.171428,-17.028571 V 45.257143 H 18.4 V 20.285714 c 2.457143,3.2 5.657143,7.485715 6.971429,9.657143 l 2.571428,-3.485714 C 26.514286,24.685714 20.571429,17.714286 18.4,15.428571 v -1.485714 h 9.942857 V 10 H 18.4 Z M 34.457143,34.057143 V 2.571429 H 47.2 V 34.057143 Z M 30.285714,-1.485714 v 44.342857 h 4.171429 V 38.171429 H 47.2 v 4.285714 h 4.228571 V -1.485714 Z"
               style="fill:#F2EEE4;fill-opacity:1;fill-rule:nonzero;stroke:none"
               id="path328" />
          </g>
        </g>
        <g
           id="g330"
           transform="translate(62.857252,15.714286)">
          <g
             id="g332"
             transform="translate(0,0.685714)">
            <path
               d="m 13.085714,22.914286 c -1.942857,4.742857 -5.2,10.8 -8.8,15.542857 l 4.857143,2.057143 C 12.342857,35.885714 15.485714,30.057143 17.6,24.8 20,18.914286 22,10.457143 22.742857,6.914286 23.028571,5.714286 23.428571,4 23.828571,2.742857 L 18.742857,1.714286 c -0.8,6.571428 -3.142857,15.257143 -5.657143,21.2 z M 41.257143,20.742857 C 43.6,26.8 46.285714,34.571429 47.714286,40.4 L 52.8,38.742857 C 51.257143,33.6 48.228571,24.8 45.942857,19.2 43.485714,13.142857 39.828571,5.257143 37.6,1.085714 l -4.628571,1.542857 c 2.457142,4.285715 6,12.228572 8.285714,18.114286 z"
               style="fill:#F2EEE4;fill-opacity:1;fill-rule:nonzero;stroke:none"
               id="path334" />
          </g>
        </g>
        <g
           id="g336"
           transform="translate(188.57176,15.714286)">
          <g
             id="g338"
             transform="translate(0,0.685714)">
            <path
               d="m 43.2,-6.457143 -3.142857,1.314286 c 1.314286,1.828571 2.971428,4.628571 4.171428,6.857143 -0.857142,0.171428 -1.714285,0.171428 -2.457142,0.171428 H 13.142857 c -1.885714,0 -4.171428,-0.171428 -5.714286,-0.4 V 6.571429 C 8.857143,6.514286 10.857143,6.4 13.085714,6.4 h 29.257143 c -0.8,5.485714 -3.428571,13.428571 -7.485714,18.628571 -4.8,6.114286 -11.2,10.971429 -22.285714,13.714286 l 3.885714,4.285714 C 26.914286,39.771429 33.714286,34.457143 38.971429,27.771429 43.485714,21.885714 46.228571,12.685714 47.485714,6.685714 47.714286,5.542857 47.942857,4.628571 48.342857,3.828571 l -2.8,-1.771428 2.171429,-0.971429 c -1.142857,-2.171428 -3.2,-5.6 -4.514286,-7.542857 z m 7.314286,-1.485714 -3.142857,1.314286 c 1.542857,2 3.428571,5.257142 4.685714,7.6 L 55.2,-0.4 C 54,-2.571429 51.942857,-6 50.514286,-7.942857 Z"
               style="fill:#F2EEE4;fill-opacity:1;fill-rule:nonzero;stroke:none"
               id="path340" />
          </g>
        </g>
      </g>
      <g
         id="g342"
         transform="translate(227.90604,608.1499)">
        <g
           id="g344"
           transform="matrix(2.274518,0,0,2.274518,-3.150796,0)">
          <g
             id="g346">
            <path
               d="M 34.301,89.102 C 18.86,84.5278 -25.676,64.977 24.7971,0 c 27.289,18.52 37.809,34.816 39.754,48.281 -13.055,4.6758 -22.039,13.766 -20.922,30.207 -7.1094,-16.91 -12.688,-40.297 -15.082,-54.875 -1.1992,17.035 1.3125,47.332 5.7539,65.488 z"
               style="fill:#F2EEE4;fill-opacity:1;fill-rule:evenodd;stroke:none"
               id="path348" />
          </g>
          <g
             id="g350">
            <path
               d="M 51.773,93.184 C 48.0152,82.739 40.207,48.778 98.539,50.649 100.2499,103.997 71.996,102.028 59.164,98.426 64.4765,88.086 71.312,78.754 79.969,70.875 69.352,76.7539 59.899,84.211 51.774,93.184 Z"
               style="fill:#F2EEE4;fill-opacity:1;fill-rule:evenodd;stroke:none"
               id="path352" />
          </g>
        </g>
      </g>
      <g
         id="g354"
         transform="translate(52.623111,810.64086)">
        <g
           id="g356">
          <path
             d="M 0,3.958672 H 170.45079"
             style="fill:none;stroke:#F2EEE4;stroke-width:14;stroke-linecap:butt;stroke-linejoin:miter;stroke-miterlimit:10;stroke-dasharray:none;stroke-opacity:1"
             id="path358" />
        </g>
      </g>
      <g
         id="g360"
         transform="translate(462.9261,810.64086)">
        <g
           id="g362">
          <path
             d="M 0,3.958672 H 170.45079"
             style="fill:none;stroke:#F2EEE4;stroke-width:14;stroke-linecap:butt;stroke-linejoin:miter;stroke-miterlimit:10;stroke-dasharray:none;stroke-opacity:1"
             id="path364" />
        </g>
      </g>
    </g>
  </g>
</svg>
