<?xml version="1.0" encoding="UTF-8" standalone="no"?>
<!-- Created with Inkscape (http://www.inkscape.org/) -->

<svg
   version="1.1"
   id="svg1393"
   width="369.86166"
   height="293.59961"
   xmlns:inkscape="http://www.inkscape.org/namespaces/inkscape"
   xmlns:sodipodi="http://sodipodi.sourceforge.net/DTD/sodipodi-0.dtd"
   xmlns="http://www.w3.org/2000/svg"
   xmlns:svg="http://www.w3.org/2000/svg">
  <defs
     id="defs1397" />
  <sodipodi:namedview
     id="namedview1395"
     pagecolor="#ffffff"
     bordercolor="#666666"
     borderopacity="1.0"
     inkscape:pageshadow="2"
     inkscape:pageopacity="0.0"
     inkscape:pagecheckerboard="0" />
  <inkscape:clipboard
     style="font-variation-settings:normal;opacity:1;vector-effect:none;fill:#000000;fill-opacity:1;stroke-width:0.27988399;stroke-linecap:butt;stroke-linejoin:miter;stroke-miterlimit:4;stroke-dasharray:none;stroke-dashoffset:0;stroke-opacity:1;-inkscape-stroke:none;stop-color:#000000;stop-opacity:1"
     min="11.72321,42.261185"
     max="381.58488,335.86079"
     geom-min="11.72321,42.261185"
     geom-max="381.58488,335.86079" />
  <g
     id="g1399"
     transform="matrix(0.27988399,0,0,0.27988399,-11.72321,-42.261176)">
    <g
       id="g22"
       transform="translate(41.885964,150.99534)">
      <g
         id="g24"
         transform="matrix(15.694673,0,0,15.694673,-114.70295,-280.91739)">
        <g
           id="g26">
          <path
             d="m 59,54.074 c 7.0781,-3.8516 20.195,0 20.195,0 -4.6133,-2.1172 -8.1836,-2.2812 -10.059,-2.9062 1.4648,-2.9062 4.6445,-6.1484 8.2891,-10 -2.082,1.25 -4.4766,3.0234 -7.2891,6.7695 -2.8125,3.7461 -7.1836,3.0273 -8.7461,2.2969 -1.5625,-0.72656 -0.83203,-5.582 0.625,-10.266 -2.5,4.2695 -2.2891,7.4414 -3.1758,10.047 -0.88281,2.6016 -4.2148,2.1875 -9.0039,6.5586 -0.37891,0.35938 -0.73047,0.72656 -1.082,1.0977 0.35156,-0.38281 0.71094,-0.75 1.082,-1.0977 -2.6289,-5.2305 -0.89453,-9.957 2.4375,-13.52 -3.1055,1.8945 -4.0938,3.1836 -5.1523,5.0039 -2.1992,-14.02 5.1523,-19.934 5.1523,-19.934 -3.7891,1.7422 -5.9141,9.7773 -7.0508,13.418 -1.5156,-2.8789 -6.0625,-6.4414 -6.0625,-6.4414 0,0 3.2578,4.3203 5.3047,10.457 2.0469,6.1367 1.1367,12.051 -1.1367,12.43 -5.6094,-0.91016 -7.1992,-5.6836 -8.5273,-8.5625 0.26562,2.4258 1.4766,5.3047 1.4766,5.3047 0,0 -2.7305,0.22656 -5.6094,-0.83594 -3.6367,-2.1562 -6.9883,-9.1367 -10.941,-11.539 2.2305,1.6719 6.375,8.7148 9.0469,12.07 -2.8789,0.07422 -8.5625,2.4258 -11.445,5.1523 8.3359,-5.1523 14.855,-4.3203 18.645,-2.957 0.22656,1.5156 -3.9414,6.5156 -6.2148,9.0938 3.4102,-3.0312 6.2148,-5.7617 8.2617,-8.4141 4.8359,1.6289 5.0625,6.5625 4.1875,9.0234 -1.7656,4.9688 -2.0625,9.3398 -2.0625,11.254 0,3.1211 1.3867,7.1602 1.3867,7.1602 h 8.6094 4.1641 c -1.7695,0 -7.3906,-5.2852 -7.3906,-12.781 0,-11.035 10.098,-17.047 11.242,-16.84 1.1445,0.20703 5.207,4.8906 9.6836,6.5586 -3.6367,-1.668 -7.9023,-6.043 -8.8398,-7.6016 z"
             style="fill:#fe3798;fill-opacity:1;fill-rule:nonzero;stroke:none"
             id="path28" />
        </g>
        <g
           id="g30">
          <path
             d="m 19.734,42.352 c -0.23828,-0.17969 -0.46484,-0.31641 -0.65625,-0.35937 0.22266,0.10156 0.44141,0.23047 0.65625,0.35937 z"
             style="fill:#fe3798;fill-opacity:1;fill-rule:nonzero;stroke:none"
             id="path32" />
        </g>
        <g
           id="g34">
          <path
             d="m 10.668,64.777 c 4.4492,0.19141 6.457,-2.9492 6.2812,-4.8711 0,0 -5.1445,0.05469 -6.2812,4.8711 z"
             style="fill:#fe3798;fill-opacity:1;fill-rule:nonzero;stroke:none"
             id="path36" />
        </g>
        <g
           id="g38">
          <path
             d="m 20.254,55.344 c 0,0 -3.6797,-3.6016 -7.8828,-1 3.0117,3.2812 6.6484,2.4805 7.8828,1 z"
             style="fill:#fe3798;fill-opacity:1;fill-rule:nonzero;stroke:none"
             id="path40" />
        </g>
        <g
           id="g42">
          <path
             d="m 13.617,58.199 c 0,0 -3.3203,-2.3867 -6.3086,0.16016 2.7578,2.2148 5.5195,1.1484 6.3086,-0.16016 z"
             style="fill:#fe3798;fill-opacity:1;fill-rule:nonzero;stroke:none"
             id="path44" />
        </g>
        <g
           id="g46">
          <path
             d="m 24.117,52.148 c 0,0 -2.0859,0.34375 -2.2461,2.3672 1.8164,-0.19922 2.4375,-1.5977 2.2461,-2.3672 z"
             style="fill:#fe3798;fill-opacity:1;fill-rule:nonzero;stroke:none"
             id="path48" />
        </g>
        <g
           id="g50">
          <path
             d="m 20.98,47.211 c 0.26953,2.4688 2.1719,3.3086 3.2148,3.0508 0.0039,0 -0.46484,-2.832 -3.2148,-3.0508 z"
             style="fill:#fe3798;fill-opacity:1;fill-rule:nonzero;stroke:none"
             id="path52" />
        </g>
        <g
           id="g54">
          <path
             d="m 17.172,50.434 c 1.6602,2.4219 4.1094,2.2383 5.0547,1.3867 0,0 -2.0664,-2.6953 -5.0547,-1.3867 z"
             style="fill:#fe3798;fill-opacity:1;fill-rule:nonzero;stroke:none"
             id="path56" />
        </g>
        <g
           id="g58">
          <path
             d="m 15.391,45.516 c 2.7422,2.043 5.3711,0.91016 6.0898,-0.38672 0,0 -3.293,-2.1797 -6.0898,0.38672 z"
             style="fill:#fe3798;fill-opacity:1;fill-rule:nonzero;stroke:none"
             id="path60" />
        </g>
        <g
           id="g62">
          <path
             d="m 13.715,50.977 c 2.0508,-0.69141 2.4102,-2.4648 1.9922,-3.3047 0,0 -2.3203,0.92969 -1.9922,3.3047 z"
             style="fill:#fe3798;fill-opacity:1;fill-rule:nonzero;stroke:none"
             id="path64" />
        </g>
        <g
           id="g66">
          <path
             d="m 14.105,46.367 c 0,0 -1.6602,-1.8672 -3.7852,-0.75 1.3477,1.6914 3.1367,1.4258 3.7852,0.75 z"
             style="fill:#fe3798;fill-opacity:1;fill-rule:nonzero;stroke:none"
             id="path68" />
        </g>
        <g
           id="g70">
          <path
             d="m 15.875,38.102 c 0,0 -1.7227,-3.1562 -5.0625,-2.2812 1.3359,2.8125 3.9336,3.0195 5.0625,2.2812 z"
             style="fill:#fe3798;fill-opacity:1;fill-rule:nonzero;stroke:none"
             id="path72" />
        </g>
        <g
           id="g74">
          <path
             d="m 19.141,38.793 c 0,0 1.418,-3.793 -1.7891,-5.9922 -1.4062,3.207 0.32813,5.5742 1.7891,5.9922 z"
             style="fill:#fe3798;fill-opacity:1;fill-rule:nonzero;stroke:none"
             id="path76" />
        </g>
        <g
           id="g78">
          <path
             d="m 22.551,42.152 c 0,0 2.5352,-3.75 -0.37109,-6.9805 -2.3672,3.1172 -1.1055,6.1445 0.37109,6.9805 z"
             style="fill:#fe3798;fill-opacity:1;fill-rule:nonzero;stroke:none"
             id="path80" />
        </g>
        <g
           id="g82">
          <path
             d="m 25.07,45.316 c 0,0 1.8477,-0.88281 1.4492,-2.8086 -1.6367,0.67578 -1.832,2.1445 -1.4492,2.8086 z"
             style="fill:#fe3798;fill-opacity:1;fill-rule:nonzero;stroke:none"
             id="path84" />
        </g>
        <g
           id="g86">
          <path
             d="m 27.324,48.816 c 0,0 1.6484,-1.8242 0.33203,-3.7812 -1.5117,1.4922 -1.0625,3.2148 -0.33203,3.7812 z"
             style="fill:#fe3798;fill-opacity:1;fill-rule:nonzero;stroke:none"
             id="path88" />
        </g>
        <g
           id="g90">
          <path
             d="m 32.402,46.465 c -0.33594,1.8828 0.88672,2.918 1.7188,2.9531 0,0 0.26562,-2.1953 -1.7188,-2.9531 z"
             style="fill:#fe3798;fill-opacity:1;fill-rule:nonzero;stroke:none"
             id="path92" />
        </g>
        <g
           id="g94">
          <path
             d="m 40.449,47.18 c -2.7695,0.23828 -3.7617,2.3477 -3.4961,3.5234 0,0 3.1836,-0.45703 3.4961,-3.5234 z"
             style="fill:#fe3798;fill-opacity:1;fill-rule:nonzero;stroke:none"
             id="path96" />
        </g>
        <g
           id="g98">
          <path
             d="m 39.379,42.137 c -3.582,1.0664 -4.3086,4.1094 -3.6445,5.5859 0.0039,0.0039 4.0664,-1.4609 3.6445,-5.5859 z"
             style="fill:#fe3798;fill-opacity:1;fill-rule:nonzero;stroke:none"
             id="path100" />
        </g>
        <g
           id="g102">
          <path
             d="m 32.508,41.672 c -0.34375,2.4609 1.293,3.7422 2.3711,3.75 0,0 0.23828,-2.8633 -2.3711,-3.75 z"
             style="fill:#fe3798;fill-opacity:1;fill-rule:nonzero;stroke:none"
             id="path104" />
        </g>
        <g
           id="g106">
          <path
             d="m 25.277,37.098 c -0.26953,1.9102 1.0039,2.9062 1.8398,2.9102 0,-0.0039 0.18359,-2.2227 -1.8398,-2.9102 z"
             style="fill:#fe3798;fill-opacity:1;fill-rule:nonzero;stroke:none"
             id="path108" />
        </g>
        <g
           id="g110">
          <path
             d="m 28.91,41.141 c 0,0 2.7812,0.23047 3.6406,-2.3047 C 30.16,38.50036 28.9139,40.0941 28.91,41.141 Z"
             style="fill:#fe3798;fill-opacity:1;fill-rule:nonzero;stroke:none"
             id="path112" />
        </g>
        <g
           id="g114">
          <path
             d="m 28.625,38.395 c 0,0 3.1953,-0.95703 3.0469,-4.1523 -2.8047,0.66797 -3.5,2.9844 -3.0469,4.1523 z"
             style="fill:#fe3798;fill-opacity:1;fill-rule:nonzero;stroke:none"
             id="path116" />
        </g>
        <g
           id="g118">
          <path
             d="m 30.281,28.102 c -2.5547,1.3398 -2.6562,3.7539 -1.9297,4.7773 0,-0.0039 2.8594,-1.7148 1.9297,-4.7773 z"
             style="fill:#fe3798;fill-opacity:1;fill-rule:nonzero;stroke:none"
             id="path120" />
        </g>
        <g
           id="g122">
          <path
             d="m 27.125,29.812 c 0,0 0.03125,-3.8125 -3.5117,-4.7266 -0.21094,3.2891 2.082,4.8281 3.5117,4.7266 z"
             style="fill:#fe3798;fill-opacity:1;fill-rule:nonzero;stroke:none"
             id="path124" />
        </g>
        <g
           id="g126">
          <path
             d="m 23.449,31.562 c 0,0 0.01953,-2.5391 -2.3359,-3.1445 -0.14062,2.1875 1.3867,3.2109 2.3359,3.1445 z"
             style="fill:#fe3798;fill-opacity:1;fill-rule:nonzero;stroke:none"
             id="path128" />
        </g>
        <g
           id="g130">
          <path
             d="m 25.898,33.48 c 0,0 -1.8906,-1.6914 -3.9062,-0.32422 1.5508,1.5547 3.3281,1.082 3.9062,0.32422 z"
             style="fill:#fe3798;fill-opacity:1;fill-rule:nonzero;stroke:none"
             id="path132" />
        </g>
        <g
           id="g134">
          <path
             d="m 34.172,39.176 c -0.24219,1.7344 0.91016,2.6406 1.6719,2.6445 0.0039,0 0.17188,-2.0195 -1.6719,-2.6445 z"
             style="fill:#fe3798;fill-opacity:1;fill-rule:nonzero;stroke:none"
             id="path136" />
        </g>
        <g
           id="g138">
          <path
             d="m 35.625,37.934 c 1.7891,1.5938 3.6953,0.96484 4.2773,0.10156 0,0 -2.1719,-1.7227 -4.2773,-0.10156 z"
             style="fill:#fe3798;fill-opacity:1;fill-rule:nonzero;stroke:none"
             id="path140" />
        </g>
        <g
           id="g142">
          <path
             d="m 38.695,35.023 c 0,0 -1.5,-4.4609 -6,-4.0977 1.0781,3.9219 4.375,4.7891 6,4.0977 z"
             style="fill:#fe3798;fill-opacity:1;fill-rule:nonzero;stroke:none"
             id="path144" />
        </g>
        <g
           id="g146">
          <path
             d="m 42.621,36.566 c 0,0 3.3984,-3.2578 1.1484,-7.1758 -3.0859,2.6484 -2.4648,6 -1.1484,7.1758 z"
             style="fill:#fe3798;fill-opacity:1;fill-rule:nonzero;stroke:none"
             id="path148" />
        </g>
        <g
           id="g150">
          <path
             d="m 39.289,33.234 c 0,0 3.3984,-3.2578 1.1484,-7.1719 -3.0859,2.6445 -2.4648,5.9961 -1.1484,7.1719 z"
             style="fill:#fe3798;fill-opacity:1;fill-rule:nonzero;stroke:none"
             id="path152" />
        </g>
        <g
           id="g154">
          <path
             d="m 43.992,24.02 c 0,0 1.7734,-3.6289 -1.1953,-6.1211 -1.7031,3.0469 -0.21094,5.5625 1.1953,6.1211 z"
             style="fill:#fe3798;fill-opacity:1;fill-rule:nonzero;stroke:none"
             id="path156" />
        </g>
        <g
           id="g158">
          <path
             d="m 50.238,28.242 c 0,0 2.4883,-3.8516 -0.52344,-7.0586 -2.332,3.2031 -0.98828,6.2383 0.52344,7.0586 z"
             style="fill:#fe3798;fill-opacity:1;fill-rule:nonzero;stroke:none"
             id="path160" />
        </g>
        <g
           id="g162">
          <path
             d="m 61.75,23.246 c -4.5977,-0.97656 -7.2383,1.9492 -7.3906,3.9844 -0.0039,0 5.375,0.82812 7.3906,-3.9844 z"
             style="fill:#fe3798;fill-opacity:1;fill-rule:nonzero;stroke:none"
             id="path164" />
        </g>
        <g
           id="g166">
          <path
             d="m 54.113,20.93 c -1.8359,1.3711 -1.6133,3.2773 -0.91797,3.9883 0,0 2.0352,-1.7031 0.91797,-3.9883 z"
             style="fill:#fe3798;fill-opacity:1;fill-rule:nonzero;stroke:none"
             id="path168" />
        </g>
        <g
           id="g170">
          <path
             d="m 59.758,31.363 c -2.6406,-3.1953 -6.0625,-2.6172 -7.2812,-1.2969 -0.0039,0 3.2539,3.5156 7.2812,1.2969 z"
             style="fill:#fe3798;fill-opacity:1;fill-rule:nonzero;stroke:none"
             id="path172" />
        </g>
        <g
           id="g174">
          <path
             d="m 55.328,35.035 c -1.6406,-1.9805 -3.7617,-1.625 -4.5234,-0.80469 0,0 2.0234,2.1797 4.5234,0.80469 z"
             style="fill:#fe3798;fill-opacity:1;fill-rule:nonzero;stroke:none"
             id="path176" />
        </g>
        <g
           id="g178">
          <path
             d="m 53.145,42.109 c 0,0 3.9297,-0.61719 4.2617,-4.4219 -3.4219,0.34766 -4.6094,2.9727 -4.2617,4.4219 z"
             style="fill:#fe3798;fill-opacity:1;fill-rule:nonzero;stroke:none"
             id="path180" />
        </g>
        <g
           id="g182">
          <path
             d="m 63.973,38.777 c 0,0 5.5977,-0.88281 6.0703,-6.2969 -4.875,0.49219 -6.5625,4.2305 -6.0703,6.2969 z"
             style="fill:#fe3798;fill-opacity:1;fill-rule:nonzero;stroke:none"
             id="path184" />
        </g>
        <g
           id="g186">
          <path
             d="m 75.418,40.914 c 0,0 3.8906,-1.9023 3.0156,-5.9648 -3.4492,1.457 -3.8398,4.5664 -3.0156,5.9648 z"
             style="fill:#fe3798;fill-opacity:1;fill-rule:nonzero;stroke:none"
             id="path188" />
        </g>
        <g
           id="g190">
          <path
             d="m 71.43,45.355 c 0,0 2.2891,-2.6055 0.39844,-5.3359 -2.1055,2.1367 -1.4375,4.5586 -0.39844,5.3359 z"
             style="fill:#fe3798;fill-opacity:1;fill-rule:nonzero;stroke:none"
             id="path192" />
        </g>
        <g
           id="g194">
          <path
             d="m 81.926,30.973 c -2.1641,0.49219 -2.7148,2.2695 -2.3789,3.1719 0,0 2.4688,-0.71094 2.3789,-3.1719 z"
             style="fill:#fe3798;fill-opacity:1;fill-rule:nonzero;stroke:none"
             id="path196" />
        </g>
        <g
           id="g198">
          <path
             d="m 84.02,33.184 c -4.0664,0.92578 -5.1016,4.2617 -4.4688,5.9531 0,0.0039 4.6367,-1.3281 4.4688,-5.9531 z"
             style="fill:#fe3798;fill-opacity:1;fill-rule:nonzero;stroke:none"
             id="path200" />
        </g>
        <g
           id="g202">
          <path
             d="m 79.754,40.672 c 0,0 3.4297,3.3906 7.3789,0.98047 C 84.336,38.55867 80.922,39.28917 79.754,40.672 Z"
             style="fill:#fe3798;fill-opacity:1;fill-rule:nonzero;stroke:none"
             id="path204" />
        </g>
        <g
           id="g206">
          <path
             d="m 76.727,43.875 c 0,0 1.9453,4.1836 6.293,3.3359 -1.4805,-3.707 -4.7812,-4.1914 -6.293,-3.3359 z"
             style="fill:#fe3798;fill-opacity:1;fill-rule:nonzero;stroke:none"
             id="path208" />
        </g>
        <g
           id="g210">
          <path
             d="m 81.727,53.035 c 0,0 2.082,4.4727 6.7266,3.5664 -1.582,-3.9609 -5.1133,-4.4805 -6.7266,-3.5664 z"
             style="fill:#fe3798;fill-opacity:1;fill-rule:nonzero;stroke:none"
             id="path212" />
        </g>
        <g
           id="g214">
          <path
             d="m 81.082,57.023 c 0,0 0.88672,3.8359 4.6641,3.8984 -0.58203,-3.3555 -3.2578,-4.3438 -4.6641,-3.8984 z"
             style="fill:#fe3798;fill-opacity:1;fill-rule:nonzero;stroke:none"
             id="path216" />
        </g>
        <g
           id="g218">
          <path
             d="m 77.32,56.969 c 0,0 -1.0859,3.7812 2.1836,5.6719 1.125,-3.2148 -0.73438,-5.3789 -2.1836,-5.6719 z"
             style="fill:#fe3798;fill-opacity:1;fill-rule:nonzero;stroke:none"
             id="path220" />
        </g>
        <g
           id="g222">
          <path
             d="m 77.5,55.098 c 0,0 0.99609,1.7578 2.8633,1.2344 C 79.58986,54.7699 78.1289,54.6722 77.5,55.098 Z"
             style="fill:#fe3798;fill-opacity:1;fill-rule:nonzero;stroke:none"
             id="path224" />
        </g>
        <g
           id="g226">
          <path
             d="m 75.035,55.844 c 0,0 -2.0586,1.9141 -0.75391,4.2734 1.8711,-1.5547 1.5312,-3.5586 0.75391,-4.2734 z"
             style="fill:#fe3798;fill-opacity:1;fill-rule:nonzero;stroke:none"
             id="path228" />
        </g>
        <g
           id="g230">
          <path
             d="m 75.504,63.043 c -1.9258,-3.2305 -5.0703,-3.1875 -6.3516,-2.1758 0,0 2.4297,3.6094 6.3516,2.1758 z"
             style="fill:#fe3798;fill-opacity:1;fill-rule:nonzero;stroke:none"
             id="path232" />
        </g>
        <g
           id="g234">
          <path
             d="m 71.965,56.215 c -3.6719,-0.80078 -5.793,1.5234 -5.9297,3.1523 0,0 4.2969,0.6875 5.9297,-3.1523 z"
             style="fill:#fe3798;fill-opacity:1;fill-rule:nonzero;stroke:none"
             id="path236" />
        </g>
        <g
           id="g238">
          <path
             d="m 62.496,55.418 c 0,0 2.6328,1.4336 4.5742,-0.6875 -2.2031,-1.3633 -4.1133,-0.34375 -4.5742,0.6875 z"
             style="fill:#fe3798;fill-opacity:1;fill-rule:nonzero;stroke:none"
             id="path240" />
        </g>
        <g
           id="g242">
          <path
             d="m 72.754,65.137 c 0,0 0.05859,3.6719 3.4883,4.4648 0.12891,-3.1719 -2.1172,-4.5898 -3.4883,-4.4648 z"
             style="fill:#fe3798;fill-opacity:1;fill-rule:nonzero;stroke:none"
             id="path244" />
        </g>
        <g
           id="g246">
          <path
             d="m 68.133,63.219 c 0,0 -0.51953,4.3242 3.3867,5.8086 0.66016,-3.7109 -1.75,-5.7422 -3.3867,-5.8086 z"
             style="fill:#fe3798;fill-opacity:1;fill-rule:nonzero;stroke:none"
             id="path248" />
        </g>
        <g
           id="g250">
          <path
             d="m 63.699,61.105 c 0,0 -2.0469,3.3398 0.58984,6.0195 1.9258,-2.7812 0.71875,-5.3477 -0.58984,-6.0195 z"
             style="fill:#fe3798;fill-opacity:1;fill-rule:nonzero;stroke:none"
             id="path252" />
        </g>
        <g
           id="g254">
          <path
             d="m 56.895,64.105 c 3.0039,-1.2578 3.3555,-3.9648 2.6406,-5.1875 0,0 -3.3906,1.6484 -2.6406,5.1875 z"
             style="fill:#fe3798;fill-opacity:1;fill-rule:nonzero;stroke:none"
             id="path256" />
        </g>
        <g
           id="g258">
          <path
             d="m 58.664,56.18 c 0,0 -3,0.33203 -3.3828,3.1992 2.6055,-0.14062 3.5977,-2.0859 3.3828,-3.1992 z"
             style="fill:#fe3798;fill-opacity:1;fill-rule:nonzero;stroke:none"
             id="path260" />
        </g>
        <g
           id="g262">
          <path
             d="m 60.789,57.992 c 0,0 -0.97656,2.0742 0.73047,3.4609 0.94141,-1.7461 0.07422,-3.1602 -0.73047,-3.4609 z"
             style="fill:#fe3798;fill-opacity:1;fill-rule:nonzero;stroke:none"
             id="path264" />
        </g>
        <g
           id="g266">
          <path
             d="m 88.715,36.188 c -2.8398,-0.58984 -4.4609,1.2188 -4.5469,2.4727 -0.0039,0.0039 3.3125,0.5 4.5469,-2.4727 z"
             style="fill:#fe3798;fill-opacity:1;fill-rule:nonzero;stroke:none"
             id="path268" />
        </g>
        <g
           id="g270">
          <path
             d="m 63.492,42.316 c 0,0 3.5781,1.0195 5.3516,-2.0781 -3.0391,-1.0508 -5.0742,0.70703 -5.3516,2.0781 z"
             style="fill:#fe3798;fill-opacity:1;fill-rule:nonzero;stroke:none"
             id="path272" />
        </g>
        <g
           id="g274">
          <path
             d="m 65.668,47.246 c 0,0 2.75,-0.43359 2.9805,-3.0938 -2.3906,0.24219 -3.2227,2.0781 -2.9805,3.0938 z"
             style="fill:#fe3798;fill-opacity:1;fill-rule:nonzero;stroke:none"
             id="path276" />
        </g>
        <g
           id="g278">
          <path
             d="m 64.742,48.473 c 0,0 0.51172,-2.4141 -1.6211,-3.4492 -0.55859,2.0625 0.70312,3.3281 1.6211,3.4492 z"
             style="fill:#fe3798;fill-opacity:1;fill-rule:nonzero;stroke:none"
             id="path280" />
        </g>
        <g
           id="g282">
          <path
             d="m 65.371,48.18 c 0,0 1.293,1.2617 2.7617,0.34766 C 67.078,47.38316 65.8046,47.66047 65.371,48.18 Z"
             style="fill:#fe3798;fill-opacity:1;fill-rule:nonzero;stroke:none"
             id="path284" />
        </g>
        <g
           id="g286">
          <path
             d="m 82.168,49.398 c -3.0391,-1.0508 -5.0742,0.71094 -5.3516,2.0781 0,0 3.5781,1.0156 5.3516,-2.0781 z"
             style="fill:#fe3798;fill-opacity:1;fill-rule:nonzero;stroke:none"
             id="path288" />
        </g>
        <g
           id="g290">
          <path
             d="m 72.961,50.395 c 0,0 3.7148,0.17578 4.7383,-3.2422 -3.1992,-0.33203 -4.7812,1.8438 -4.7383,3.2422 z"
             style="fill:#fe3798;fill-opacity:1;fill-rule:nonzero;stroke:none"
             id="path292" />
        </g>
        <g
           id="g294">
          <path
             d="m 85.793,45.996 c 0,0 2.7383,2.5195 5.7148,0.55078 -2.2383,-2.3047 -4.8516,-1.6484 -5.7148,-0.55078 z"
             style="fill:#fe3798;fill-opacity:1;fill-rule:nonzero;stroke:none"
             id="path296" />
        </g>
        <g
           id="g298">
          <path
             d="m 86.617,43.461 c -2.0391,-0.19531 -3.0352,1.1992 -3.0039,2.0898 0.0039,0 2.3711,0.09375 3.0039,-2.0898 z"
             style="fill:#fe3798;fill-opacity:1;fill-rule:nonzero;stroke:none"
             id="path300" />
        </g>
        <g
           id="g302">
          <path
             d="m 86.969,49.551 c -0.29688,-2.4219 -2.1758,-3.2227 -3.1992,-2.9531 0,0 0.5,2.7773 3.1992,2.9531 z"
             style="fill:#fe3798;fill-opacity:1;fill-rule:nonzero;stroke:none"
             id="path304" />
        </g>
        <g
           id="g306">
          <path
             d="m 60.512,34.574 c -0.85938,2.4844 0.57812,4.1484 1.6992,4.375 0,0 0.83203,-2.9258 -1.6992,-4.375 z"
             style="fill:#fe3798;fill-opacity:1;fill-rule:nonzero;stroke:none"
             id="path308" />
        </g>
        <g
           id="g310">
          <path
             d="m 60.922,26.473 c -0.71875,2.082 0.48438,3.4805 1.4258,3.668 0,0 0.69531,-2.4531 -1.4258,-3.668 z"
             style="fill:#fe3798;fill-opacity:1;fill-rule:nonzero;stroke:none"
             id="path312" />
        </g>
        <g
           id="g314">
          <path
             d="m 70.676,31.809 c 0,0 0.69531,-2.4531 -1.4219,-3.6719 -0.72266,2.0859 0.48438,3.4805 1.4219,3.6719 z"
             style="fill:#fe3798;fill-opacity:1;fill-rule:nonzero;stroke:none"
             id="path316" />
        </g>
        <g
           id="g318">
          <path
             d="m 77.414,33.543 c 0,0 -2.5625,-2.2539 -5.2539,-0.38672 2.1055,2.0664 4.4844,1.4102 5.2539,0.38672 z"
             style="fill:#fe3798;fill-opacity:1;fill-rule:nonzero;stroke:none"
             id="path320" />
        </g>
        <g
           id="g322">
          <path
             d="m 72.363,28.609 c 0,0 1.6406,-1.9531 0.19922,-3.9297 -1.5117,1.6055 -0.98047,3.3711 -0.19922,3.9297 z"
             style="fill:#fe3798;fill-opacity:1;fill-rule:nonzero;stroke:none"
             id="path324" />
        </g>
        <g
           id="g326">
          <path
             d="m 66.957,30.656 c -2.1172,-0.72266 -3.5273,0.50781 -3.7148,1.4609 0,0 2.4883,0.69922 3.7148,-1.4609 z"
             style="fill:#fe3798;fill-opacity:1;fill-rule:nonzero;stroke:none"
             id="path328" />
        </g>
        <g
           id="g330">
          <path
             d="m 67.98,25.469 c -3.2852,0.09766 -4.5938,2.5195 -4.3633,3.9258 0,-0.0039 3.7891,-0.32812 4.3633,-3.9258 z"
             style="fill:#fe3798;fill-opacity:1;fill-rule:nonzero;stroke:none"
             id="path332" />
        </g>
        <g
           id="g334">
          <path
             d="m 72.781,31.055 c 0,0 4.6094,-0.39453 5.3086,-4.7734 -4,0.11719 -5.5898,3.0625 -5.3086,4.7734 z"
             style="fill:#fe3798;fill-opacity:1;fill-rule:nonzero;stroke:none"
             id="path336" />
        </g>
        <g
           id="g338">
          <path
             d="m 49.258,40.477 c -0.14453,1.8906 1.1641,2.7891 1.9844,2.7422 0,0 0.04687,-2.1953 -1.9844,-2.7422 z"
             style="fill:#fe3798;fill-opacity:1;fill-rule:nonzero;stroke:none"
             id="path340" />
        </g>
        <g
           id="g342">
          <path
             d="m 52.902,40.203 c 0,0 1.3203,-2.1133 -0.34375,-3.832 -1.2422,1.7617 -0.48438,3.4023 0.34375,3.832 z"
             style="fill:#fe3798;fill-opacity:1;fill-rule:nonzero;stroke:none"
             id="path344" />
        </g>
        <g
           id="g346">
          <path
             d="m 57.352,45.211 c 0,0 -1.832,-2.4805 -4.5625,-1.3438 1.4609,2.2227 3.6914,2.1016 4.5625,1.3438 z"
             style="fill:#fe3798;fill-opacity:1;fill-rule:nonzero;stroke:none"
             id="path348" />
        </g>
        <g
           id="g350">
          <path
             d="m 47.223,22.613 c -2.168,0.76172 -2.5234,2.6562 -2.0703,3.543 0,0 2.4531,-1.0195 2.0703,-3.543 z"
             style="fill:#fe3798;fill-opacity:1;fill-rule:nonzero;stroke:none"
             id="path352" />
        </g>
        <g
           id="g354">
          <path
             d="m 43.117,25.914 c 0,0 -1.1602,-1.7891 -3.0977,-1.1211 0.91406,1.6016 2.4609,1.6055 3.0977,1.1211 z"
             style="fill:#fe3798;fill-opacity:1;fill-rule:nonzero;stroke:none"
             id="path356" />
        </g>
        <g
           id="g358">
          <path
             d="m 36.062,29.746 c 0,0 1.0938,-3.3984 -1.8164,-5.207 -1.1094,2.8828 0.51562,4.8945 1.8164,5.207 z"
             style="fill:#fe3798;fill-opacity:1;fill-rule:nonzero;stroke:none"
             id="path360" />
        </g>
        <g
           id="g362">
          <path
             d="m 18.266,41.363 c 0,0 -3.4141,-3.832 -7.7773,-1.5391 2.7734,3.4766 6.4453,2.9336 7.7773,1.5391 z"
             style="fill:#fe3798;fill-opacity:1;fill-rule:nonzero;stroke:none"
             id="path364" />
        </g>
        <g
           id="g366">
          <path
             d="m 13.227,47.934 c 0,0 -3.6719,-1.3633 -5.793,1.7461 3.1094,1.3516 5.3906,-0.33203 5.793,-1.7461 z"
             style="fill:#fe3798;fill-opacity:1;fill-rule:nonzero;stroke:none"
             id="path368" />
        </g>
        <g
           id="g370">
          <path
             d="m 18.332,63.488 c 3.4648,-0.70703 4.4102,-3.5117 3.9062,-4.9609 0,0 -3.9531,1.0312 -3.9062,4.9609 z"
             style="fill:#fe3798;fill-opacity:1;fill-rule:nonzero;stroke:none"
             id="path372" />
        </g>
      </g>
    </g>
  </g>
</svg>
